<svg version="1.2" xmlns="http://www.w3.org/2000/svg" viewBox="0 0 327 260" width="100" height="80"><style></style><path fill-rule="evenodd" d="m51 17h223c10.5 0 19 8.5 19 19v1c0 10.5-8.5 19-19 19h-223c-10.5 0-19-8.5-19-19v-1c0-10.5 8.5-19 19-19z"/><path fill-rule="evenodd" d="m51 110h223c10.5 0 19 8.5 19 19v1c0 10.5-8.5 19-19 19h-223c-10.5 0-19-8.5-19-19v-1c0-10.5 8.5-19 19-19z"/><path fill-rule="evenodd" d="m51 204h223c10.5 0 19 8.5 19 19v1c0 10.5-8.5 19-19 19h-223c-10.5 0-19-8.5-19-19v-1c0-10.5 8.5-19 19-19z"/></svg>